<mxfile host="app.diagrams.net" agent="Mozilla/5.0 (Macintosh; Intel Mac OS X 10_15_7) AppleWebKit/537.36 (KHTML, like Gecko) Chrome/129.0.0.0 Safari/537.36" version="24.7.17">
  <diagram name="Página-1" id="5__o4EWrlAuVvxLWsPrR">
    <mxGraphModel grid="1" page="1" gridSize="10" guides="1" tooltips="1" connect="1" arrows="1" fold="1" pageScale="1" pageWidth="827" pageHeight="1169" math="0" shadow="0">
      <root>
        <mxCell id="0" />
        <mxCell id="1" parent="0" />
        <mxCell id="9Z4SUNUCJopfSTuHPRtn-15" style="rounded=0;orthogonalLoop=1;jettySize=auto;html=1;entryX=0;entryY=0;entryDx=0;entryDy=0;endArrow=none;endFill=0;" edge="1" parent="1" source="9Z4SUNUCJopfSTuHPRtn-1" target="9Z4SUNUCJopfSTuHPRtn-14">
          <mxGeometry relative="1" as="geometry" />
        </mxCell>
        <mxCell id="9Z4SUNUCJopfSTuHPRtn-1" value="&lt;font style=&quot;vertical-align: inherit;&quot;&gt;&lt;font style=&quot;vertical-align: inherit;&quot;&gt;Ministerio da Cidadania&lt;/font&gt;&lt;/font&gt;" style="whiteSpace=wrap;html=1;align=center;" vertex="1" parent="1">
          <mxGeometry x="314" y="80" width="100" height="40" as="geometry" />
        </mxCell>
        <mxCell id="9Z4SUNUCJopfSTuHPRtn-2" value="*Instituto de Pesquisa Econômica Aplicada" style="whiteSpace=wrap;html=1;align=center;" vertex="1" parent="1">
          <mxGeometry x="30" y="240" width="100" height="50" as="geometry" />
        </mxCell>
        <mxCell id="9Z4SUNUCJopfSTuHPRtn-3" value="Associação Brasileira de Agroecolgia" style="whiteSpace=wrap;html=1;align=center;" vertex="1" parent="1">
          <mxGeometry x="160" y="480" width="100" height="40" as="geometry" />
        </mxCell>
        <mxCell id="9Z4SUNUCJopfSTuHPRtn-19" style="rounded=0;orthogonalLoop=1;jettySize=auto;html=1;entryX=0.5;entryY=1;entryDx=0;entryDy=0;endArrow=none;endFill=0;" edge="1" parent="1" source="9Z4SUNUCJopfSTuHPRtn-4">
          <mxGeometry relative="1" as="geometry">
            <mxPoint x="640" y="410" as="targetPoint" />
          </mxGeometry>
        </mxCell>
        <mxCell id="9Z4SUNUCJopfSTuHPRtn-4" value="&lt;font style=&quot;vertical-align: inherit; font-size: 11px;&quot;&gt;&lt;font style=&quot;vertical-align: inherit; font-size: 11px;&quot;&gt;&lt;font style=&quot;vertical-align: inherit; font-size: 11px;&quot;&gt;&lt;font style=&quot;vertical-align: inherit; font-size: 11px;&quot;&gt;Fundo Nacional de Desenvolvimento da Educação&lt;/font&gt;&lt;/font&gt;&lt;/font&gt;&lt;/font&gt;" style="whiteSpace=wrap;html=1;align=center;" vertex="1" parent="1">
          <mxGeometry x="480" y="480" width="100" height="40" as="geometry" />
        </mxCell>
        <mxCell id="9Z4SUNUCJopfSTuHPRtn-24" style="rounded=0;orthogonalLoop=1;jettySize=auto;html=1;endArrow=none;endFill=0;" edge="1" parent="1" source="9Z4SUNUCJopfSTuHPRtn-5" target="9Z4SUNUCJopfSTuHPRtn-22">
          <mxGeometry relative="1" as="geometry" />
        </mxCell>
        <mxCell id="9Z4SUNUCJopfSTuHPRtn-25" style="rounded=0;orthogonalLoop=1;jettySize=auto;html=1;entryX=0;entryY=0;entryDx=0;entryDy=0;endArrow=none;endFill=0;" edge="1" parent="1" source="9Z4SUNUCJopfSTuHPRtn-5" target="9Z4SUNUCJopfSTuHPRtn-23">
          <mxGeometry relative="1" as="geometry" />
        </mxCell>
        <mxCell id="9Z4SUNUCJopfSTuHPRtn-5" value="&lt;font style=&quot;vertical-align: inherit;&quot;&gt;&lt;font style=&quot;vertical-align: inherit;&quot;&gt;&amp;nbsp;Consea&lt;/font&gt;&lt;/font&gt;" style="whiteSpace=wrap;html=1;align=center;" vertex="1" parent="1">
          <mxGeometry x="600" y="240" width="110" height="40" as="geometry" />
        </mxCell>
        <mxCell id="9Z4SUNUCJopfSTuHPRtn-11" style="rounded=0;orthogonalLoop=1;jettySize=auto;html=1;entryX=0.25;entryY=0;entryDx=0;entryDy=0;endArrow=none;endFill=0;" edge="1" parent="1" source="9Z4SUNUCJopfSTuHPRtn-6" target="9Z4SUNUCJopfSTuHPRtn-1">
          <mxGeometry relative="1" as="geometry" />
        </mxCell>
        <mxCell id="9Z4SUNUCJopfSTuHPRtn-6" value="&lt;span style=&quot;border-bottom: 1px dotted&quot;&gt;&lt;font style=&quot;vertical-align: inherit;&quot;&gt;&lt;font style=&quot;vertical-align: inherit;&quot;&gt;Assistência social&lt;/font&gt;&lt;/font&gt;&lt;/span&gt;" style="ellipse;whiteSpace=wrap;html=1;align=center;" vertex="1" parent="1">
          <mxGeometry x="250" y="-80" width="100" height="40" as="geometry" />
        </mxCell>
        <mxCell id="9Z4SUNUCJopfSTuHPRtn-10" style="rounded=0;orthogonalLoop=1;jettySize=auto;html=1;entryX=0;entryY=0;entryDx=0;entryDy=0;endArrow=none;endFill=0;" edge="1" parent="1" source="9Z4SUNUCJopfSTuHPRtn-7" target="9Z4SUNUCJopfSTuHPRtn-1">
          <mxGeometry relative="1" as="geometry" />
        </mxCell>
        <mxCell id="9Z4SUNUCJopfSTuHPRtn-7" value="&lt;font style=&quot;vertical-align: inherit;&quot;&gt;&lt;font style=&quot;vertical-align: inherit;&quot;&gt;Coordenação de politica sociais&lt;/font&gt;&lt;/font&gt;" style="ellipse;whiteSpace=wrap;html=1;align=center;" vertex="1" parent="1">
          <mxGeometry x="130" y="-80" width="100" height="40" as="geometry" />
        </mxCell>
        <mxCell id="9Z4SUNUCJopfSTuHPRtn-12" style="rounded=0;orthogonalLoop=1;jettySize=auto;html=1;entryX=0.75;entryY=0;entryDx=0;entryDy=0;endArrow=none;endFill=0;" edge="1" parent="1" source="9Z4SUNUCJopfSTuHPRtn-8" target="9Z4SUNUCJopfSTuHPRtn-1">
          <mxGeometry relative="1" as="geometry" />
        </mxCell>
        <mxCell id="9Z4SUNUCJopfSTuHPRtn-8" value="&lt;span style=&quot;border-bottom: 1px dotted&quot;&gt;Segurança alimentar&lt;/span&gt;" style="ellipse;whiteSpace=wrap;html=1;align=center;" vertex="1" parent="1">
          <mxGeometry x="360" y="-80" width="100" height="40" as="geometry" />
        </mxCell>
        <mxCell id="9Z4SUNUCJopfSTuHPRtn-13" style="rounded=0;orthogonalLoop=1;jettySize=auto;html=1;entryX=1;entryY=0;entryDx=0;entryDy=0;endArrow=none;endFill=0;" edge="1" parent="1" source="9Z4SUNUCJopfSTuHPRtn-9" target="9Z4SUNUCJopfSTuHPRtn-1">
          <mxGeometry relative="1" as="geometry" />
        </mxCell>
        <mxCell id="9Z4SUNUCJopfSTuHPRtn-9" value="&lt;span style=&quot;border-bottom: 1px dotted&quot;&gt;Segurança nutricional&lt;/span&gt;" style="ellipse;whiteSpace=wrap;html=1;align=center;" vertex="1" parent="1">
          <mxGeometry x="470" y="-80" width="100" height="40" as="geometry" />
        </mxCell>
        <mxCell id="9Z4SUNUCJopfSTuHPRtn-16" style="rounded=0;orthogonalLoop=1;jettySize=auto;html=1;entryX=0;entryY=0;entryDx=0;entryDy=0;endArrow=none;endFill=0;" edge="1" parent="1" source="9Z4SUNUCJopfSTuHPRtn-14" target="9Z4SUNUCJopfSTuHPRtn-5">
          <mxGeometry relative="1" as="geometry" />
        </mxCell>
        <mxCell id="9Z4SUNUCJopfSTuHPRtn-14" value="&lt;font style=&quot;vertical-align: inherit;&quot;&gt;&lt;font style=&quot;vertical-align: inherit;&quot;&gt;&lt;font style=&quot;vertical-align: inherit;&quot;&gt;&lt;font style=&quot;vertical-align: inherit;&quot;&gt;segurança alimentar&lt;/font&gt;&lt;/font&gt;&lt;/font&gt;&lt;/font&gt;" style="shape=rhombus;perimeter=rhombusPerimeter;whiteSpace=wrap;html=1;align=center;" vertex="1" parent="1">
          <mxGeometry x="450" y="160" width="100" height="50" as="geometry" />
        </mxCell>
        <mxCell id="9Z4SUNUCJopfSTuHPRtn-21" style="rounded=0;orthogonalLoop=1;jettySize=auto;html=1;entryX=0.5;entryY=1;entryDx=0;entryDy=0;endArrow=none;endFill=0;" edge="1" parent="1" source="9Z4SUNUCJopfSTuHPRtn-20" target="9Z4SUNUCJopfSTuHPRtn-5">
          <mxGeometry relative="1" as="geometry" />
        </mxCell>
        <mxCell id="9Z4SUNUCJopfSTuHPRtn-20" value="Ministerio da cidadania" style="shape=rhombus;perimeter=rhombusPerimeter;whiteSpace=wrap;html=1;align=center;" vertex="1" parent="1">
          <mxGeometry x="580" y="350" width="120" height="60" as="geometry" />
        </mxCell>
        <mxCell id="9Z4SUNUCJopfSTuHPRtn-22" value="&lt;span style=&quot;border-bottom: 1px dotted&quot;&gt;Orgão consultivo&lt;/span&gt;" style="ellipse;whiteSpace=wrap;html=1;align=center;" vertex="1" parent="1">
          <mxGeometry x="780" y="170" width="100" height="40" as="geometry" />
        </mxCell>
        <mxCell id="9Z4SUNUCJopfSTuHPRtn-23" value="&lt;span style=&quot;border-bottom: 1px dotted&quot;&gt;Orgão deliberativo&lt;/span&gt;" style="ellipse;whiteSpace=wrap;html=1;align=center;" vertex="1" parent="1">
          <mxGeometry x="780" y="310" width="100" height="40" as="geometry" />
        </mxCell>
        <mxCell id="9Z4SUNUCJopfSTuHPRtn-27" style="rounded=0;orthogonalLoop=1;jettySize=auto;html=1;entryX=1;entryY=0.5;entryDx=0;entryDy=0;endArrow=none;endFill=0;" edge="1" parent="1" source="9Z4SUNUCJopfSTuHPRtn-26" target="9Z4SUNUCJopfSTuHPRtn-3">
          <mxGeometry relative="1" as="geometry" />
        </mxCell>
        <mxCell id="9Z4SUNUCJopfSTuHPRtn-28" style="rounded=0;orthogonalLoop=1;jettySize=auto;html=1;exitX=1;exitY=0.5;exitDx=0;exitDy=0;entryX=0;entryY=0.5;entryDx=0;entryDy=0;endArrow=none;endFill=0;" edge="1" parent="1" source="9Z4SUNUCJopfSTuHPRtn-26" target="9Z4SUNUCJopfSTuHPRtn-4">
          <mxGeometry relative="1" as="geometry" />
        </mxCell>
        <mxCell id="9Z4SUNUCJopfSTuHPRtn-26" value="Praticas agricolas sustentáveis na alimentação escolar" style="shape=rhombus;perimeter=rhombusPerimeter;whiteSpace=wrap;html=1;align=center;" vertex="1" parent="1">
          <mxGeometry x="320" y="470" width="110" height="65" as="geometry" />
        </mxCell>
        <mxCell id="9Z4SUNUCJopfSTuHPRtn-30" style="rounded=0;orthogonalLoop=1;jettySize=auto;html=1;exitX=0.5;exitY=0;exitDx=0;exitDy=0;endArrow=none;endFill=0;" edge="1" parent="1" target="9Z4SUNUCJopfSTuHPRtn-4">
          <mxGeometry relative="1" as="geometry">
            <mxPoint x="510" y="610" as="sourcePoint" />
          </mxGeometry>
        </mxCell>
        <mxCell id="9Z4SUNUCJopfSTuHPRtn-32" value="" style="rounded=0;orthogonalLoop=1;jettySize=auto;html=1;endArrow=none;endFill=0;" edge="1" parent="1" target="9Z4SUNUCJopfSTuHPRtn-3">
          <mxGeometry relative="1" as="geometry">
            <mxPoint x="230" y="610" as="sourcePoint" />
          </mxGeometry>
        </mxCell>
        <mxCell id="9Z4SUNUCJopfSTuHPRtn-35" value="Gestao de recurso para a educação" style="ellipse;whiteSpace=wrap;html=1;align=center;fontStyle=4;" vertex="1" parent="1">
          <mxGeometry x="460" y="610" width="100" height="50" as="geometry" />
        </mxCell>
        <mxCell id="9Z4SUNUCJopfSTuHPRtn-36" value="&lt;span style=&quot;font-size: 11px;&quot;&gt;Promoção de práticas agrícolas sustentáveis&lt;/span&gt;" style="ellipse;whiteSpace=wrap;html=1;align=center;fontStyle=4;" vertex="1" parent="1">
          <mxGeometry x="180" y="610" width="100" height="50" as="geometry" />
        </mxCell>
        <mxCell id="9Z4SUNUCJopfSTuHPRtn-39" style="rounded=0;orthogonalLoop=1;jettySize=auto;html=1;exitX=0.5;exitY=0;exitDx=0;exitDy=0;endArrow=none;endFill=0;" edge="1" parent="1" source="9Z4SUNUCJopfSTuHPRtn-37" target="9Z4SUNUCJopfSTuHPRtn-2">
          <mxGeometry relative="1" as="geometry" />
        </mxCell>
        <mxCell id="9Z4SUNUCJopfSTuHPRtn-37" value=" defesa de políticas públicas " style="shape=rhombus;perimeter=rhombusPerimeter;whiteSpace=wrap;html=1;align=center;" vertex="1" parent="1">
          <mxGeometry x="60" y="350" width="120" height="60" as="geometry" />
        </mxCell>
        <mxCell id="9Z4SUNUCJopfSTuHPRtn-38" style="rounded=0;orthogonalLoop=1;jettySize=auto;html=1;exitX=0;exitY=0.5;exitDx=0;exitDy=0;entryX=0.533;entryY=0.9;entryDx=0;entryDy=0;entryPerimeter=0;endArrow=none;endFill=0;" edge="1" parent="1" source="9Z4SUNUCJopfSTuHPRtn-3" target="9Z4SUNUCJopfSTuHPRtn-37">
          <mxGeometry relative="1" as="geometry" />
        </mxCell>
        <mxCell id="5d93HtVmaNuczLBNUx_2-1" value="(1,N)" style="text;html=1;align=center;verticalAlign=middle;resizable=0;points=[];autosize=1;strokeColor=none;fillColor=none;" vertex="1" parent="1">
          <mxGeometry x="430" y="120" width="50" height="30" as="geometry" />
        </mxCell>
        <mxCell id="5d93HtVmaNuczLBNUx_2-2" value="(1,N)" style="text;html=1;align=center;verticalAlign=middle;resizable=0;points=[];autosize=1;strokeColor=none;fillColor=none;" vertex="1" parent="1">
          <mxGeometry x="560" y="200" width="50" height="30" as="geometry" />
        </mxCell>
        <mxCell id="5d93HtVmaNuczLBNUx_2-3" value="(1,N)" style="text;html=1;align=center;verticalAlign=middle;resizable=0;points=[];autosize=1;strokeColor=none;fillColor=none;" vertex="1" parent="1">
          <mxGeometry x="650" y="310" width="50" height="30" as="geometry" />
        </mxCell>
        <mxCell id="5d93HtVmaNuczLBNUx_2-4" value="(1,N)" style="text;html=1;align=center;verticalAlign=middle;resizable=0;points=[];autosize=1;strokeColor=none;fillColor=none;" vertex="1" parent="1">
          <mxGeometry x="595" y="438" width="50" height="30" as="geometry" />
        </mxCell>
        <mxCell id="5d93HtVmaNuczLBNUx_2-5" value="(1,N)" style="text;html=1;align=center;verticalAlign=middle;resizable=0;points=[];autosize=1;strokeColor=none;fillColor=none;" vertex="1" parent="1">
          <mxGeometry x="430" y="470" width="50" height="30" as="geometry" />
        </mxCell>
        <mxCell id="5d93HtVmaNuczLBNUx_2-8" value="(N,N)" style="text;html=1;align=center;verticalAlign=middle;resizable=0;points=[];autosize=1;strokeColor=none;fillColor=none;" vertex="1" parent="1">
          <mxGeometry x="270" y="470" width="50" height="30" as="geometry" />
        </mxCell>
        <mxCell id="5d93HtVmaNuczLBNUx_2-10" value="(N,N)" style="text;html=1;align=center;verticalAlign=middle;resizable=0;points=[];autosize=1;strokeColor=none;fillColor=none;" vertex="1" parent="1">
          <mxGeometry x="140" y="430" width="50" height="30" as="geometry" />
        </mxCell>
        <mxCell id="5d93HtVmaNuczLBNUx_2-11" value="(N,N)" style="text;html=1;align=center;verticalAlign=middle;resizable=0;points=[];autosize=1;strokeColor=none;fillColor=none;" vertex="1" parent="1">
          <mxGeometry x="105" y="310" width="50" height="30" as="geometry" />
        </mxCell>
      </root>
    </mxGraphModel>
  </diagram>
</mxfile>
